{"title":"The Innkeepers (2011) 720p HDRip X264 AAC MP4 (EUS_XA)","uid":7384261,"size":1948393926,"categoryP":"video","categoryS":"hd___movies","magnet":"?xt=urn:btih:f3eff0ab0354d19d800ef39a9e40035f80a12bab&amp;dn=The+Innkeepers+%282011%29+720p+HDRip+X264+AAC+MP4+%28EUS_XA%29&amp;tr=udp%3A%2F%2Ftracker.openbittorrent.com%3A80&amp;tr=udp%3A%2F%2Fopen.demonii.com%3A1337&amp;tr=udp%3A%2F%2Ftracker.coppersurfer.tk%3A6969&amp;tr=udp%3A%2F%2Fexodus.desync.com%3A6969","seeders":1,"leechers":0,"uploader":"azpieusk","files":2,"time":1340584053,"description":"General\nComplete name                  : The Innkeepers (2011) 720p HDRip X264 AAC MP4 (EUS_XA)\nFormat                         : MPEG-4\nFormat profile                 : Base Media / Version 2\nCodec ID                       : mp42\nFile size                      : 1.81 GiB\nDuration                       : 1h 41mn\nOverall bit rate mode          : Variable\nOverall bit rate               : 2 561 Kbps\nEncoded date                   : UTC 2012-06-23 21:15:09\nTagged date                    : UTC 2012-06-23 21:44:24\nWriting application            : HandBrake 0.9.6 2012022800\n\nVideo\nID                             : 1\nFormat                         : AVC\nFormat/Info                    : Advanced Video Codec\nFormat profile                 : &lt;a class=&quot;__cf_email__&quot; href=&quot;/cdn-cgi/l/email-protection&quot; data-cfemail=&quot;1c517d75725c502f322d&quot;&gt;[email&amp;#160;protected]&lt;/a&gt;&lt;script cf-hash='f9e31' type=&quot;text/javascript&quot;&gt;\n/* &lt;![CDATA[ */!function(){try{var t=&quot;currentScript&quot;in document?document.currentScript:function(){for(var t=document.getElementsByTagName(&quot;script&quot;),e=t.length;e--;)if(t[e].getAttribute(&quot;cf-hash&quot;))return t[e]}();if(t&amp;&amp;t.previousSibling){var e,r,n,i,c=t.previousSibling,a=c.getAttribute(&quot;data-cfemail&quot;);if(a){for(e=&quot;&quot;,r=parseInt(a.substr(0,2),16),n=2;a.length-n;n+=2)i=parseInt(a.substr(n,2),16)^r,e+=String.fromCharCode(i);e=document.createTextNode(e),c.parentNode.replaceChild(e,c)}}}catch(u){}}();/* ]]&gt; */&lt;/script&gt;\nFormat settings, CABAC         : Yes\nFormat settings, ReFrames      : 4 frames\nCodec ID                       : avc1\nCodec ID/Info                  : Advanced Video Coding\nDuration                       : 1h 41mn\nBit rate mode                  : Variable\nBit rate                       : 2 300 Kbps\nWidth                          : 1 280 pixels\nHeight                         : 528 pixels\nDisplay aspect ratio           : 2.40:1\nFrame rate mode                : Variable\nFrame rate                     : 23.976 fps\nMinimum frame rate             : 23.810 fps\nMaximum frame rate             : 24.390 fps\nColor space                    : YUV\nChroma subsampling             : 4:2:0\nBit depth                      : 8 bits\nScan type                      : Progressive\nBits/(Pixel*Frame)             : 0.142\nStream size                    : 1.63 GiB (90%)\nWriting library                : x264 core 120\n\n...............................\n\nAudio\nID                             : 2\nFormat                         : AAC\nFormat/Info                    : Advanced Audio Codec\nFormat profile                 : LC\nCodec ID                       : 40\nDuration                       : 1h 41mn\nBit rate mode                  : Variable\nBit rate                       : 256 Kbps\nMaximum bit rate               : 436 Kbps\nChannel(s)                     : 2 channels\nChannel positions              : Front: L R\nSampling rate                  : 48.0 KHz\nCompression mode               : Lossy\nDelay relative to video        : -83ms\nStream size                    : 186 MiB (10%)\nEncoded date                   : UTC 2012-06-23 21:15:09\n\n &lt;a href=&quot;\nhttps://sites.google.com/site/azpidatziak/&quot; rel=&quot;nofollow&quot; target=&quot;_NEW&quot;&gt;\nhttps://sites.google.com/site/azpidatziak/&lt;/a&gt;","torrent":{"xt":"urn:btih:f3eff0ab0354d19d800ef39a9e40035f80a12bab","amp;dn":"The+Innkeepers+%282011%29+720p+HDRip+X264+AAC+MP4+%28EUS_XA%29","amp;tr":["udp%3A%2F%2Ftracker.openbittorrent.com%3A80","udp%3A%2F%2Fopen.demonii.com%3A1337","udp%3A%2F%2Ftracker.coppersurfer.tk%3A6969","udp%3A%2F%2Fexodus.desync.com%3A6969"],"infoHash":"f3eff0ab0354d19d800ef39a9e40035f80a12bab","infoHashBuffer":{"type":"Buffer","data":[243,239,240,171,3,84,209,157,128,14,243,154,158,64,3,95,128,161,43,171]},"announce":[],"urlList":[]}}